<svg width="512" height="512" viewBox="0 0 512 512" fill="none" xmlns="http://www.w3.org/2000/svg">
<rect width="512" height="512" rx="50" fill="white"/>
<path d="M40.6441 289V225.55H54.6841V251.02H83.7541V225.55H97.8841V289H83.7541V262.63H54.6841V289H40.6441ZM127.611 289.99C123.651 289.99 120.171 289.03 117.171 287.11C114.171 285.19 111.831 282.46 110.151 278.92C108.471 275.38 107.631 271.12 107.631 266.14C107.631 261.22 108.471 256.99 110.151 253.45C111.831 249.91 114.171 247.21 117.171 245.35C120.171 243.43 123.651 242.47 127.611 242.47C131.271 242.47 134.541 243.37 137.421 245.17C140.361 246.91 142.281 249.28 143.181 252.28H142.191L143.271 243.37H156.321C156.141 245.35 155.961 247.36 155.781 249.4C155.661 251.38 155.601 253.33 155.601 255.25V289H142.101L142.011 280.45H143.091C142.131 283.33 140.211 285.64 137.331 287.38C134.451 289.12 131.211 289.99 127.611 289.99ZM131.751 279.73C134.871 279.73 137.391 278.62 139.311 276.4C141.231 274.18 142.191 270.76 142.191 266.14C142.191 261.52 141.231 258.13 139.311 255.97C137.391 253.81 134.871 252.73 131.751 252.73C128.631 252.73 126.111 253.81 124.191 255.97C122.271 258.13 121.311 261.52 121.311 266.14C121.311 270.76 122.241 274.18 124.101 276.4C126.021 278.62 128.571 279.73 131.751 279.73ZM188.706 289.99C183.846 289.99 179.586 289.03 175.926 287.11C172.266 285.19 169.446 282.43 167.466 278.83C165.486 275.23 164.496 270.97 164.496 266.05C164.496 261.07 165.486 256.84 167.466 253.36C169.506 249.82 172.326 247.12 175.926 245.26C179.586 243.4 183.846 242.47 188.706 242.47C191.766 242.47 194.736 242.92 197.616 243.82C200.556 244.72 202.956 245.98 204.816 247.6L200.856 256.96C199.356 255.58 197.616 254.56 195.636 253.9C193.716 253.18 191.856 252.82 190.056 252.82C186.396 252.82 183.546 253.96 181.506 256.24C179.466 258.52 178.446 261.82 178.446 266.14C178.446 270.46 179.466 273.76 181.506 276.04C183.546 278.32 186.396 279.46 190.056 279.46C191.796 279.46 193.626 279.13 195.546 278.47C197.526 277.81 199.296 276.82 200.856 275.5L204.816 284.77C202.896 286.39 200.466 287.68 197.526 288.64C194.646 289.54 191.706 289.99 188.706 289.99ZM212.537 289V222.76H226.127V262.36H226.307L243.227 243.37H259.427L237.557 267.67V262.72L260.597 289H243.947L226.307 269.2H226.127V289H212.537ZM290.517 289V225.55H304.557V251.02H333.627V225.55H347.757V289H333.627V262.63H304.557V289H290.517ZM375.324 289V236.98H355.164V225.55H409.524V236.98H389.364V289H375.324ZM444.438 289.99C435.138 289.99 428.208 287.68 423.648 283.06C419.088 278.44 416.808 271.57 416.808 262.45V225.55H430.848V262.54C430.848 267.64 431.928 271.51 434.088 274.15C436.308 276.79 439.758 278.11 444.438 278.11C448.998 278.11 452.388 276.79 454.608 274.15C456.888 271.51 458.028 267.64 458.028 262.54V225.55H471.888V262.45C471.888 271.57 469.578 278.44 464.958 283.06C460.398 287.68 453.558 289.99 444.438 289.99Z" fill="#242F65"/>
</svg>
