<svg width="512" height="512" viewBox="0 0 512 512" fill="none" xmlns="http://www.w3.org/2000/svg">
<rect width="512" height="512" rx="50" fill="white"/>
<path d="M97.8655 235V139.825H118.926V178.03H162.531V139.825H183.726V235H162.531V195.445H118.926V235H97.8655ZM228.316 236.485C222.376 236.485 217.156 235.045 212.656 232.165C208.156 229.285 204.646 225.19 202.126 219.88C199.606 214.57 198.346 208.18 198.346 200.71C198.346 193.33 199.606 186.985 202.126 181.675C204.646 176.365 208.156 172.315 212.656 169.525C217.156 166.645 222.376 165.205 228.316 165.205C233.806 165.205 238.711 166.555 243.031 169.255C247.441 171.865 250.321 175.42 251.671 179.92H250.186L251.806 166.555H271.381C271.111 169.525 270.841 172.54 270.571 175.6C270.391 178.57 270.301 181.495 270.301 184.375V235H250.051L249.916 222.175H251.536C250.096 226.495 247.216 229.96 242.896 232.57C238.576 235.18 233.716 236.485 228.316 236.485ZM234.526 221.095C239.206 221.095 242.986 219.43 245.866 216.1C248.746 212.77 250.186 207.64 250.186 200.71C250.186 193.78 248.746 188.695 245.866 185.455C242.986 182.215 239.206 180.595 234.526 180.595C229.846 180.595 226.066 182.215 223.186 185.455C220.306 188.695 218.866 193.78 218.866 200.71C218.866 207.64 220.261 212.77 223.051 216.1C225.931 219.43 229.756 221.095 234.526 221.095ZM319.958 236.485C312.668 236.485 306.278 235.045 300.788 232.165C295.298 229.285 291.068 225.145 288.098 219.745C285.128 214.345 283.643 207.955 283.643 200.575C283.643 193.105 285.128 186.76 288.098 181.54C291.158 176.23 295.388 172.18 300.788 169.39C306.278 166.6 312.668 165.205 319.958 165.205C324.548 165.205 329.003 165.88 333.323 167.23C337.733 168.58 341.333 170.47 344.123 172.9L338.183 186.94C335.933 184.87 333.323 183.34 330.353 182.35C327.473 181.27 324.683 180.73 321.983 180.73C316.493 180.73 312.218 182.44 309.158 185.86C306.098 189.28 304.568 194.23 304.568 200.71C304.568 207.19 306.098 212.14 309.158 215.56C312.218 218.98 316.493 220.69 321.983 220.69C324.593 220.69 327.338 220.195 330.218 219.205C333.188 218.215 335.843 216.73 338.183 214.75L344.123 228.655C341.243 231.085 337.598 233.02 333.188 234.46C328.868 235.81 324.458 236.485 319.958 236.485ZM355.705 235V135.64H376.09V195.04H376.36L401.74 166.555H426.04L393.235 203.005V195.58L427.795 235H402.82L376.36 205.3H376.09V235H355.705ZM120.871 384V288.825H141.931V327.03H185.536V288.825H206.731V384H185.536V344.445H141.931V384H120.871ZM248.081 384V305.97H217.841V288.825H299.381V305.97H269.141V384H248.081ZM351.751 385.485C337.801 385.485 327.406 382.02 320.566 375.09C313.726 368.16 310.306 357.855 310.306 344.175V288.825H331.366V344.31C331.366 351.96 332.986 357.765 336.226 361.725C339.556 365.685 344.731 367.665 351.751 367.665C358.591 367.665 363.676 365.685 367.006 361.725C370.426 357.765 372.136 351.96 372.136 344.31V288.825H392.926V344.175C392.926 357.855 389.461 368.16 382.531 375.09C375.691 382.02 365.431 385.485 351.751 385.485Z" fill="#242F65"/>
</svg>
