<svg width="256" height="256" viewBox="0 0 256 256" fill="none" xmlns="http://www.w3.org/2000/svg">
<path d="M188.965 229.523L170.156 249.506L170.162 249.517L179.63 252.926C193.976 256.881 206.766 248.997 214.64 244.143C214.812 244.037 214.982 243.932 215.149 243.829C215.362 243.698 215.571 243.57 215.776 243.445C218.13 241.619 220.902 240.455 223.822 240.066C226.742 239.677 229.709 240.076 232.435 241.224C237.309 242.851 237.884 239.148 237.884 239.148C238.683 234.887 231.445 232.792 229.256 232.158C229.187 232.138 229.122 232.12 229.064 232.103C228.979 232.078 228.906 232.056 228.845 232.038C228.459 231.918 227.969 231.895 227.445 231.87C226.02 231.803 224.345 231.725 223.826 229.667C223.421 228.059 225.494 226.741 228.067 225.104C229.996 223.877 232.207 222.472 233.865 220.631C237.734 216.334 234.724 214.114 225.83 214.114C216.937 214.114 194.124 227.897 192.12 229.229C190.115 230.561 188.965 229.523 188.965 229.523Z" fill="#234A92"/>
<path d="M50.1833 42.1151C55.7553 38.0208 62.3444 35.6574 69.1738 35.3036C69.1738 35.3036 62.2897 44.6734 56.6578 51.2457C51.9308 56.7712 46.6267 61.7398 40.8422 66.0609C36.2375 71.6697 32.0193 77.6052 28.2187 83.8237L31.2335 82.1918C34.7508 76.9082 39.7592 72.8727 45.5767 70.6349C47.1532 70.046 48.8797 70.046 50.4562 70.6349C50.4562 70.6349 45.9099 78.1896 39.7083 87.2264C35.7027 92.8014 30.0733 96.9042 23.6455 98.9332C22.5544 103.803 21.896 108.766 21.6786 113.76C23.7861 108.484 27.1375 103.836 31.4277 100.239C35.718 96.6422 40.8109 94.2108 46.243 93.1658C46.8174 93.0071 47.4267 93.0521 47.9734 93.2937C48.52 93.5352 48.9723 93.9594 49.2578 94.4981C47.6779 94.6202 42.9488 100.426 40.0415 105.167C36.8819 110.618 33.0224 115.601 28.568 119.982C24.2635 123.829 21.3938 126.643 21.3938 126.643C20.63 132.15 20.9721 137.76 22.3987 143.124C23.7846 136.929 26.614 131.177 30.6412 126.368C34.6683 121.559 39.7713 117.839 45.5068 115.53C41.0591 121.664 38.0063 128.754 36.5753 136.274C33.9802 143.503 29.5695 149.888 23.796 154.775C24.1878 159.267 25.4042 163.642 27.3804 167.664C26.5527 165.805 26.4001 163.701 26.9505 161.736C37.2954 133.104 47.3716 136.513 47.3716 136.513C44.0813 138.709 43.5441 143.786 42.5845 152.856C42.4987 153.667 42.4095 154.51 42.3147 155.386C41.1593 166.054 30.4113 177.905 30.4113 177.905C32.818 183.791 36.3262 189.128 40.7347 193.609C33.7432 166.349 48.0971 159.821 48.0971 159.821C47.0137 162.443 46.8113 165.364 47.5221 168.119C49.3068 171.831 50.4248 175.846 50.8217 179.97C51.9663 196.273 47.6671 200.714 47.6671 200.714C49.8221 206.381 61.7255 213.792 61.7255 213.792C45.6573 194.047 58.7107 177.9 58.7107 177.9C58.3008 182.086 60.054 185.486 64.3337 193.783C64.5992 194.298 64.8744 194.831 65.1594 195.385C68.1556 202.112 69.3915 209.532 68.7439 216.906L73.4784 221.796L72.8247 222.148C72.3652 222.385 71.9345 222.617 71.5329 222.844L70.1787 223.572L59.7102 217.056C51.8863 217.682 44.0162 216.931 36.4355 214.835C29.5027 212.406 23.1894 208.393 17.9652 203.095C19.7722 202.731 21.6229 202.656 23.452 202.873C24.7856 203.004 26.7133 202.931 28.9077 202.849C31.6653 202.745 34.8447 202.626 37.7952 202.873C42.0465 203.23 43.6272 204.633 46.3064 207.011L46.3089 207.014C46.9683 207.599 47.6943 208.244 48.5431 208.946C52.8423 212.504 52.1275 211.355 52.1275 211.355L36.5753 195.391C31.0255 195.914 25.4299 195.361 20.0772 193.759C15.3979 192.817 11.1333 190.353 7.90749 186.727C4.68166 183.101 2.66393 178.505 2.14959 173.609C4.28118 173.814 6.33861 174.523 8.16307 175.68C10.2972 177.061 12.6168 178.111 15.0471 178.794C20.8767 179.839 26.3026 182.561 30.7015 186.648L23.9572 173.609C8.31891 169.313 6.59924 164.422 6.59924 164.422C0.714739 157.312 0 142.496 0 142.496L2.14959 143.235C4.39661 146.002 6.95063 148.488 9.75914 150.64C13.0261 152.688 15.9334 155.293 18.3575 158.344C21.2272 162.196 21.2272 161.308 21.2272 161.308L18.954 149.901C14.5398 147.576 10.3936 144.744 6.59387 141.458C-2.8697 129.274 3.00943 112.827 3.00943 112.827C3.00943 112.827 4.01436 112.977 5.30411 115.791C7.33227 119.729 9.73558 123.448 12.4784 126.893C14.9967 131.068 16.8335 135.642 17.9156 140.432C17.9213 140.459 17.9271 140.485 17.933 140.509L17.9156 140.432C17.2299 137.175 17.933 115.025 17.933 115.025C15.1781 114.481 12.5708 113.324 10.2918 111.635C8.01276 109.946 6.11652 107.766 4.73447 105.245C-0.429918 96.5297 6.44877 76.9684 6.44877 76.9684C7.50403 80.2263 8.79937 83.3958 10.3234 86.4493C13.34 91.1445 15.7517 96.2256 17.4977 101.564C18.2178 105.716 18.6477 108.975 18.6477 108.975C18.9325 104.084 21.3723 92.2333 21.3723 92.2333C9.75376 65.528 27.3965 51.1568 27.3965 51.1568C31.2712 57.6791 28.2564 78.012 28.2564 78.012C30.1414 76.2252 31.783 74.1823 33.1359 71.9393C34.8715 69.8969 36.2761 67.5782 37.2954 65.0729C36.8958 62.8504 37.0437 60.5599 37.7253 58.4118C40.2888 51.8638 44.6113 46.2094 50.1833 42.1151Z" fill="#234A92"/>
<path d="M113.445 219.282C113.66 219.549 113.807 219.868 113.875 220.209L114.767 224.544C114.876 224.905 114.876 225.293 114.767 225.654C114.706 225.794 114.611 225.914 114.491 226.005C114.371 226.095 114.231 226.152 114.084 226.17C113.992 226.225 113.887 226.254 113.78 226.254C113.674 226.254 113.569 226.225 113.477 226.17C113.261 225.851 113.126 225.481 113.085 225.093L112.117 220.908C112.022 220.507 112.022 220.088 112.117 219.687C112.15 219.567 112.22 219.462 112.318 219.388C112.415 219.315 112.534 219.277 112.655 219.282C112.776 219.213 112.912 219.177 113.05 219.177C113.188 219.177 113.324 219.213 113.445 219.282Z" fill="#234A92"/>
<path fill-rule="evenodd" clip-rule="evenodd" d="M71.5329 222.844L72.8247 222.148C79.709 218.595 93.0446 213.913 111.472 211.472C117.764 210.837 124.084 210.565 130.405 210.656L130.571 210.783C134.173 210.786 137.768 211.096 141.319 211.71C173.343 215.896 188.691 224.155 188.514 226.526C188.336 228.896 187.761 229.49 187.761 229.49L170.027 247.808C170.027 247.808 169.527 243.028 166.443 242.068C153.956 238.324 141.067 236.196 128.073 235.734C115.066 236.198 102.165 238.325 89.6648 242.068C86.6553 243.028 86.0803 247.808 86.0803 247.808L68.2602 229.251C67.7739 228.343 67.5153 227.324 67.5079 226.287C67.4441 225.617 68.827 224.367 71.5329 222.844ZM160.15 229.501H159.827L159.908 228.713C161.773 228.341 162.917 227.708 163.277 226.859C163.391 226.685 163.467 226.488 163.502 226.281C163.536 226.075 163.528 225.863 163.477 225.66C163.426 225.457 163.334 225.267 163.207 225.103C163.08 224.94 162.921 224.806 162.74 224.71C162.342 224.521 161.9 224.456 161.467 224.522C161.033 224.588 160.628 224.783 160.3 225.082L159.87 224.566C160.465 223.94 161.238 223.528 162.077 223.388C162.915 223.248 163.774 223.389 164.53 223.789C165.148 224.066 165.637 224.581 165.892 225.225C166.147 225.869 166.148 226.591 165.895 227.236C165.529 227.788 165.026 228.228 164.439 228.508C163.851 228.789 163.201 228.9 162.557 228.829C162.95 229.046 163.295 229.346 163.57 229.708C163.844 230.071 164.041 230.49 164.15 230.936C164.258 231.383 164.275 231.848 164.199 232.301C164.122 232.755 163.955 233.187 163.707 233.57C163.386 234.179 162.943 234.71 162.408 235.129C161.873 235.548 161.258 235.844 160.603 235.999C159.948 236.153 159.269 236.162 158.611 236.024C157.953 235.887 157.331 235.606 156.786 235.202C155.206 234.202 154.598 233.237 154.921 232.237C154.992 232.106 155.087 231.991 155.202 231.899C155.317 231.807 155.449 231.74 155.589 231.702C155.73 231.664 155.877 231.656 156.02 231.679C156.164 231.701 156.302 231.753 156.426 231.832C156.644 232.009 156.821 232.233 156.945 232.49C157.069 232.746 157.135 233.028 157.14 233.314C157.135 233.63 157.207 233.942 157.351 234.221C157.495 234.5 157.705 234.736 157.963 234.907C159.037 235.39 160.005 234.796 160.902 233.203C161.762 231.475 161.619 230.241 160.472 229.501C160.367 229.469 160.255 229.469 160.15 229.501ZM140.825 231.133L133.221 230.911L133.334 229.989L134.263 229.029C137.525 225.771 138.708 223.989 138.708 222.324C138.708 220.658 138.063 219.692 136.805 219.692C136.235 219.725 135.694 219.966 135.281 220.373C134.867 220.78 134.607 221.326 134.548 221.913H133.796C133.878 220.888 134.336 219.934 135.076 219.245C135.816 218.557 136.782 218.187 137.778 218.21C138.235 218.214 138.686 218.315 139.103 218.507C139.521 218.698 139.896 218.976 140.205 219.323C140.514 219.67 140.751 220.079 140.901 220.524C141.051 220.97 141.111 221.442 141.078 221.913C141.153 223.284 140.218 224.727 138.283 226.32C137.171 227.319 136.273 228.169 135.628 228.874H139.213C139.407 228.91 139.608 228.899 139.797 228.84C139.987 228.782 140.16 228.679 140.304 228.538C140.447 228.397 140.556 228.224 140.623 228.031C140.689 227.839 140.71 227.633 140.685 227.43H141.293L140.825 231.133ZM113.052 232.282V232.654L113.117 232.648C115.017 232.129 116.657 230.885 117.706 229.168C118.627 227.481 118.872 225.488 118.389 223.617C118.093 222.117 117.34 220.756 116.239 219.731C115.744 219.317 115.161 219.031 114.538 218.896C113.914 218.761 113.269 218.781 112.655 218.954C112.133 219.073 111.641 219.302 111.209 219.627C110.777 219.952 110.415 220.365 110.145 220.841C109.605 221.819 109.451 222.974 109.715 224.067C109.918 225.09 110.481 226 111.295 226.62C111.644 226.905 112.052 227.103 112.487 227.2C112.922 227.296 113.373 227.287 113.805 227.175C114.123 227.107 114.426 226.981 114.702 226.803C114.972 226.617 115.204 226.377 115.385 226.098V226.47C115.737 227.677 115.737 228.965 115.385 230.172C115.173 230.682 114.854 231.136 114.451 231.501C114.047 231.866 113.569 232.133 113.052 232.282ZM91.039 226.189C91.2684 226.201 91.5481 226.216 91.8251 226.764L94.2219 231.144L94.4745 231.66C94.992 232.556 95.4017 233.514 95.6943 234.513C95.7451 234.732 95.7458 234.959 95.6963 235.178C95.6469 235.397 95.5487 235.601 95.4095 235.773V235.995L96.5219 235.329L97.5967 234.735L98.6393 234.141L99.7141 233.625C99.5043 233.647 99.2925 233.615 99.0981 233.531C98.9038 233.446 98.733 233.313 98.6017 233.142C97.9155 232.222 97.3264 231.228 96.8444 230.178L93.0074 222.435C92.5417 222.86 92.0193 223.532 91.511 224.186C90.9577 224.898 90.4211 225.588 89.9926 225.915V226.137C90.108 226.052 90.246 226.007 90.3876 226.007C90.5291 226.007 90.6671 226.052 90.7825 226.137C90.8568 226.179 90.9436 226.184 91.039 226.189Z" fill="#234A92"/>
<path d="M67.0242 229.529L85.8331 249.512L76.2191 252.909C61.9073 256.854 49.1528 249.023 41.2418 244.166C40.8264 243.911 40.4243 243.664 40.0361 243.428C37.6817 241.603 34.9095 240.439 31.9898 240.049C29.0701 239.66 26.1027 240.059 23.3768 241.208C18.5026 242.834 17.9276 239.132 17.9276 239.132C17.2492 234.871 24.5018 232.771 26.6943 232.137C26.8627 232.088 27.0039 232.047 27.1063 232.015C27.4923 231.896 27.9825 231.873 28.5067 231.848C29.9313 231.781 31.6071 231.702 32.1256 229.645C32.531 228.037 30.4581 226.718 27.8849 225.082C25.9556 223.855 23.745 222.449 22.087 220.608C18.2178 216.312 21.2272 214.092 30.1211 214.092C39.0151 214.092 61.8652 227.902 63.8697 229.234C65.8742 230.567 67.0242 229.529 67.0242 229.529Z" fill="#234A92"/>
<path d="M205.75 42.131C200.19 38.0375 193.613 35.6688 186.794 35.3036C186.794 35.3036 193.646 44.6734 199.245 51.2457C203.962 56.7674 209.254 61.7357 215.023 66.0609C219.628 71.6697 223.846 77.6052 227.647 83.8237L224.632 82.1918C221.108 76.9043 216.095 72.8639 210.273 70.6182C208.696 70.0293 206.97 70.0293 205.393 70.6182C205.393 70.6182 209.972 78.1729 216.141 87.2098C220.147 92.7848 225.776 96.8876 232.204 98.9165C233.309 103.782 233.982 108.741 234.214 113.732C232.118 108.455 228.775 103.805 224.49 100.208C220.206 96.61 215.116 94.1794 209.687 93.1381C209.113 92.9721 208.501 93.0138 207.953 93.256C207.404 93.4983 206.953 93.9267 206.672 94.4703C208.247 94.5924 212.981 100.399 215.851 105.139C219.011 110.59 222.87 115.573 227.324 119.954C231.629 123.801 234.499 126.615 234.499 126.615C235.262 132.122 234.92 137.732 233.494 143.096C232.108 136.901 229.279 131.149 225.252 126.34C221.225 121.531 216.121 117.811 210.386 115.503C214.803 121.65 217.841 128.736 219.28 136.246C221.869 143.48 226.276 149.871 232.048 154.764C231.656 159.256 230.44 163.631 228.464 167.653C229.291 165.794 229.444 163.69 228.894 161.725C218.565 133.093 208.526 136.502 208.526 136.502C211.786 138.677 212.312 143.681 213.25 152.594C213.343 153.481 213.441 154.408 213.546 155.374C214.701 166.043 225.449 177.894 225.449 177.894C223.041 183.78 219.531 189.117 215.12 193.598C222.289 166.332 207.946 159.815 207.946 159.815C208.994 162.45 209.158 165.371 208.413 168.114C206.629 171.825 205.511 175.841 205.114 179.965C203.969 196.268 208.268 200.708 208.268 200.708C206.113 206.376 194.21 213.786 194.21 213.786C210.278 194.042 197.225 177.894 197.225 177.894C197.635 182.081 195.882 185.48 191.602 193.777L191.593 193.795C191.33 194.304 191.058 194.832 190.776 195.38C187.78 202.106 186.544 209.526 187.192 216.9L182.312 221.791L185.612 223.567L196.086 217.122C203.897 217.749 211.755 216.998 219.323 214.902C226.267 212.477 232.592 208.464 237.825 203.162C236.079 202.792 234.29 202.693 232.516 202.868C231.182 202.998 229.254 202.926 227.06 202.843C224.302 202.74 221.123 202.62 218.173 202.868C213.921 203.224 212.341 204.627 209.661 207.006C209.002 207.592 208.274 208.237 207.425 208.94C203.125 212.499 203.84 211.349 203.84 211.349L219.366 194.941C224.915 195.465 230.511 194.911 235.864 193.309C253.539 187.975 253.791 173.159 253.791 173.159C251.656 173.365 249.594 174.075 247.767 175.235C245.633 176.617 243.313 177.666 240.883 178.35C235.014 179.525 229.592 182.403 225.25 186.648L231.994 173.609C247.633 169.313 249.352 164.422 249.352 164.422C255.264 157.312 256 142.491 256 142.491L253.813 143.229C251.577 146.007 249.024 148.496 246.209 150.64C242.942 152.688 240.034 155.293 237.61 158.344C234.741 162.196 234.741 161.308 234.741 161.308L237.003 149.901C241.417 147.576 245.563 144.744 249.363 141.458C258.827 129.274 252.948 112.827 252.948 112.827C252.948 112.827 251.905 112.977 250.615 115.791C248.587 119.729 246.184 123.448 243.441 126.893C240.921 131.076 239.084 135.66 238.005 140.459C238.689 137.18 237.986 115.058 237.986 115.058C240.728 114.531 243.328 113.397 245.606 111.735C247.884 110.072 249.787 107.921 251.185 105.428C256.387 96.674 249.465 77.1183 249.465 77.1183C248.397 80.2758 247.102 83.3465 245.591 86.305C242.573 90.9947 240.16 96.0701 238.411 101.403C237.691 105.555 237.261 108.814 237.261 108.814C236.976 103.923 234.536 92.0723 234.536 92.0723C246.155 65.3671 228.512 50.9959 228.512 50.9959C224.637 57.5181 227.652 77.851 227.652 77.851C227.652 77.851 226.787 77.5512 222.773 71.9227C221.039 69.8853 219.634 67.5723 218.613 65.0729C219.013 62.8504 218.865 60.5599 218.183 58.4118C215.624 51.8729 211.311 46.2246 205.75 42.131Z" fill="#234A92"/>
<path d="M133.866 47.3378L127.363 30.4854C128.226 30.7998 129.12 31.0121 130.029 31.1182C131.103 31.2292 132.538 27.71 132.538 27.71L133.506 30.3744L139.858 48.8865C139.858 48.8865 126.557 73.7156 125.047 75.5307C123.716 77.1301 123.003 76.8892 122.239 76.6309C122.135 76.5961 122.031 76.5609 121.925 76.5299C121.34 76.3598 121.271 76.2534 120.957 75.7694C120.79 75.5109 120.553 75.1448 120.13 74.6037C118.915 73.0495 119.523 72.4944 119.523 72.4944L133.866 47.3378Z" fill="#234A92"/>
<path d="M137.66 30.8573C136.608 31.1074 135.506 30.976 134.537 30.4854L139.96 46.15C140.857 49.375 140.212 48.8921 140.212 48.8921L125.869 75.6362C126.047 76.6353 127.589 77.9342 127.589 77.9342C131.249 80.4155 132.576 76.7131 132.576 76.7131L146.898 50.7627L139.723 28.5592C139.197 29.4645 138.494 30.247 137.66 30.8573Z" fill="#234A92"/>
<path d="M130.733 188.652L128.008 182.835L125.219 188.646L119.017 189.573L123.537 194.053L122.462 200.425L127.987 197.389L133.527 200.431L132.452 194.059L136.934 189.579L130.733 188.652Z" fill="#234A92"/>
<path fill-rule="evenodd" clip-rule="evenodd" d="M124.897 0H129.776L129.798 2.18704L129.583 17.2244H131.662L132.259 5.91168L136.348 6.76096L134.699 17.8627L136.848 18.3068L141.653 2.76433L145.237 4.1354L139.863 19.3614L141.798 20.1386L146.634 11.024L150.219 13.1001L144.372 21.6317L146.452 23.186L157.957 11.3349L160.682 14.6654L149.036 25.1121L150.971 26.9273L159.473 20.7825L161.552 24.4849L153.126 29.2642L154.631 31.7066L170.677 25.7505L172.112 29.4529L155.582 34.0435L157.017 36.93L168.92 35.4479V38.8173L158.172 40.0384L159.07 42.5585H176.997V46.6329H159.607L160.327 49.7469C161.096 49.7363 161.839 50.0292 162.405 50.5657C162.971 51.1022 163.318 51.8418 163.374 52.6334C163.227 53.2731 162.874 53.8418 162.371 54.2456C161.869 54.6493 161.248 54.8639 160.612 54.8537C158.462 54.7039 159.322 55.5975 159.752 55.8917C160.318 56.4474 161.07 56.7571 161.851 56.7571C162.632 56.7571 163.383 56.4474 163.949 55.8917C164.329 55.4677 164.715 54.8642 165.15 54.1856C166.69 51.7817 168.833 48.4348 173.418 48.7811C174.987 49.0807 176.479 49.7096 177.802 50.6288C179.126 51.548 180.253 52.7381 181.113 54.1253C181.973 55.5125 182.549 57.0673 182.804 58.6935C183.06 60.3198 182.989 61.9828 182.597 63.5797C182.597 63.5797 192.49 63.7296 192.206 57.8012C192.206 57.8012 190.631 52.1727 186.756 53.6547C186.756 53.6547 186.326 53.6492 187.906 54.9869C189.486 56.3247 191.491 58.3952 187.192 60.0271C187.192 60.0271 182.962 60.4712 182.172 54.3986C181.597 50.1022 186.047 48.9143 186.762 48.9143C187.476 48.9143 192.211 48.9143 194.651 56.3247C194.651 56.3247 196.945 56.7688 195.656 54.3986C195.017 53.1396 194.194 51.99 193.216 50.9903C193.216 50.9903 195.236 49.7913 198.38 53.0663C199.492 54.2249 200.551 55.1639 201.456 55.9658C203.108 57.4306 204.243 58.4376 204.243 59.4887C204.243 61.1151 203.099 61.265 202.094 60.3768C201.866 60.1753 201.63 59.928 201.386 59.6713C200.554 58.7969 199.618 57.8132 198.509 58.1565C197.074 58.6006 197.359 59.1945 197.359 59.1945C197.359 59.1945 205.678 63.1967 203.099 69.6024C203.099 69.6024 199.229 75.9359 193.06 68.5255C193.06 68.5255 192.77 64.9674 195.785 64.5233C198.495 64.1241 198.764 65.3984 199.002 66.523C199.029 66.6493 199.055 66.7737 199.084 66.8936C199.374 68.0815 200.949 63.7851 196.935 62.7471C196.935 62.7471 192.926 60.8209 190.486 67.3376L190.056 71.2232C190.056 71.2232 203.969 70.3296 203.539 79.2221C203.189 86.4645 200.839 86.9247 199.204 87.245C198.831 87.3179 198.496 87.3836 198.23 87.5206C198.23 87.5206 195.22 91.0732 198.805 93.1492C198.667 92.7508 198.609 92.3273 198.637 91.905C198.664 91.4827 198.776 91.0709 198.964 90.6952C199.153 90.3195 199.415 89.9881 199.733 89.7217C200.052 89.4553 200.42 89.2597 200.815 89.147C201.438 89.1676 202.044 89.3644 202.566 89.7159C203.088 90.0675 203.507 90.5604 203.777 91.1409C204.047 91.7214 204.157 92.3672 204.097 93.0081C204.036 93.649 203.806 94.2604 203.432 94.7756C202.907 95.4269 202.249 95.9509 201.507 96.3106C200.764 96.6702 199.953 96.8567 199.133 96.8567C198.312 96.8567 197.502 96.6702 196.759 96.3106C196.016 95.9509 195.358 95.4269 194.833 94.7756C194.337 94.3047 193.94 93.7326 193.668 93.0953C193.396 92.4581 193.255 91.7696 193.253 91.0732C193.253 91.0732 184.655 97.5954 195.403 104.112C195.953 104.462 196.597 104.622 197.242 104.569C197.886 104.517 198.497 104.253 198.988 103.818C198.525 103.713 198.088 103.515 197.7 103.234C197.313 102.954 196.983 102.597 196.73 102.184C196.476 101.771 196.305 101.31 196.225 100.829C196.144 100.347 196.158 99.8538 196.263 99.3773C196.83 98.7515 197.536 98.2783 198.32 97.9987C199.105 97.719 199.943 97.6415 200.763 97.7728C201.583 97.9041 202.36 98.2403 203.025 98.7521C203.691 99.2639 204.225 99.9358 204.582 100.709C204.582 100.709 205.012 106.044 205.012 109.746C205.012 109.933 205.021 110.276 205.034 110.759C205.244 118.477 206.432 162.063 186.203 181.197C175.151 193.059 160.712 200.951 145.001 203.717C138.988 204.811 133.157 206.781 127.68 209.568C122.204 206.781 116.372 204.811 110.36 203.717C94.6601 200.945 80.2322 193.053 69.1899 181.197C48.9573 162.059 50.1487 118.436 50.3586 110.751C50.3717 110.271 50.381 109.931 50.381 109.746C50.381 105.894 50.8109 100.709 50.8109 100.709C51.1678 99.9358 51.7022 99.2639 52.3677 98.7521C53.0332 98.2403 53.8097 97.9041 54.6296 97.7728C55.4495 97.6415 56.288 97.719 57.0723 97.9987C57.8566 98.2783 58.5629 98.7515 59.1298 99.3773C59.2352 99.8538 59.2482 100.347 59.1681 100.829C59.088 101.31 58.9164 101.771 58.6631 102.184C58.4098 102.597 58.0799 102.954 57.6923 103.234C57.3048 103.515 56.8674 103.713 56.4052 103.818C56.8953 104.253 57.5066 104.517 58.151 104.569C58.7953 104.622 59.4392 104.462 59.9897 104.112C70.8881 97.5899 62.1393 91.0732 62.1393 91.0732C62.1378 91.7696 61.9967 92.4581 61.7248 93.0953C61.4528 93.7326 61.056 94.3047 60.5593 94.7756C60.0343 95.4269 59.377 95.9509 58.6341 96.3106C57.8911 96.6702 57.0806 96.8567 56.2601 96.8567C55.4396 96.8567 54.6292 96.6702 53.8862 96.3106C53.1432 95.9509 52.486 95.4269 51.961 94.7756C50.0962 89.8853 55.2606 89.147 55.2606 89.147C55.6471 89.2645 56.0065 89.4618 56.317 89.727C56.6275 89.9922 56.8827 90.3197 57.0671 90.6897C57.2515 91.0597 57.3613 91.4646 57.3898 91.8797C57.4182 92.2948 57.3648 92.7116 57.2328 93.1048C60.8226 91.1786 57.8078 87.4762 57.8078 87.4762C57.5166 87.2959 57.1424 87.2131 56.7275 87.1212C55.0986 86.7605 52.841 86.2605 52.4984 79.1777C52.0684 70.2907 65.8366 71.1788 65.8366 71.1788L65.4066 67.2932C62.9722 60.7765 58.9579 62.7027 58.9579 62.7027C54.9435 63.7351 56.8083 67.5541 56.8083 66.8492C56.8083 66.1442 57.0985 64.1792 60.1079 64.4789C63.1173 64.7787 62.8325 68.4811 62.8325 68.4811C56.6686 75.9304 52.7939 69.558 52.7939 69.558C50.1768 63.1911 58.3882 59.189 58.3882 59.189C58.3882 59.189 58.5279 58.595 57.2382 58.1509C56.2998 57.8278 55.4353 58.6802 54.5931 59.5106C54.2778 59.8215 53.9656 60.1294 53.6538 60.3713C52.5091 61.2594 51.5042 61.1484 51.5042 59.4832C51.5042 58.3754 52.6955 57.3021 54.4218 55.7468C55.2906 54.964 56.2949 54.0592 57.3511 52.9664C60.5056 49.7025 62.5154 50.8904 62.5154 50.8904C61.5373 51.8901 60.7144 53.0397 60.0757 54.2986C58.7859 56.6689 61.0806 56.2248 61.0806 56.2248C63.5204 48.8144 68.2548 48.8144 68.9696 48.8144C69.6843 48.8144 74.134 50.0023 73.559 54.2986C72.7367 60.3713 68.5397 59.9272 68.5397 59.9272C64.2405 58.2953 66.245 56.2192 67.8249 54.887C69.4049 53.5548 68.975 53.5548 68.975 53.5548C65.1057 52.0727 63.5257 57.7013 63.5257 57.7013C63.2356 63.4798 73.1344 63.4798 73.1344 63.4798C72.7398 61.8818 72.6673 60.217 72.9213 58.5888C73.1753 56.9607 73.7505 55.4037 74.6111 54.0146C75.4717 52.6255 76.5994 51.4339 77.9243 50.5135C79.2492 49.5932 80.7431 48.9639 82.3132 48.6645C86.9167 48.43 89.0601 51.7354 90.5985 54.1078C91.0265 54.768 91.4078 55.3559 91.7821 55.7752C92.3427 56.327 93.0874 56.6348 93.8618 56.6348C94.6362 56.6348 95.3809 56.327 95.9416 55.7752C96.3715 55.4754 97.2313 54.7372 95.0817 54.7372C94.4518 54.7385 93.8399 54.5198 93.3453 54.1168C92.8507 53.7138 92.5025 53.1499 92.3571 52.5168C92.4072 51.7772 92.7143 51.0811 93.2219 50.5569C93.7294 50.0326 94.4033 49.7154 95.1193 49.6637H94.1305L94.8829 46.5163H77.4927V42.442H95.4257L96.3554 39.9219L85.6074 38.7007V35.3313L97.5108 36.8134L98.908 33.9269L82.5174 29.3364L83.9146 25.6339L100.096 31.64L101.568 29.1976L93.1632 24.446L95.2429 20.7436L103.814 26.9661L105.717 25.151L94.0607 14.7043L96.8229 11.3349L108.302 23.1804L110.381 21.6262L104.572 13.1056L108.157 11.0296L112.746 20.1441L114.756 19.367L109.414 4.21866L112.999 2.8476L117.835 18.39L119.985 17.946L118.335 6.84423L122.424 5.88392L123.032 17.1855H125.111L124.897 2.14819V0ZM181.764 75.7861L179.324 78.7502H179.303C179.695 79.2072 179.958 79.7668 180.064 80.368C180.169 80.9691 180.112 81.5885 179.899 82.1585C179.563 82.7209 179.038 82.5863 178.556 82.4629C178.058 82.3354 177.607 82.2198 177.459 82.8967C177.169 84.2289 180.039 84.2289 180.039 84.2289C183.768 84.0846 185.348 75.7861 185.348 75.7861H181.764ZM187.245 66.8991C186.126 69.6133 185.576 72.5421 185.633 75.4919L183.661 72.7109L184.951 68.5255L180.791 69.6024L178.351 67.382C181.296 66.945 184.273 66.7834 187.245 66.8991ZM168.31 74.2832L168.313 74.304H168.291L168.31 74.2832ZM170.859 72.68C169.884 72.9644 169.002 73.5189 168.31 74.2832C168.13 72.9274 168.413 71.5488 169.11 70.3847C169.811 69.2146 170.887 68.3349 172.15 67.8983C173.745 67.2293 175.511 67.1258 177.169 67.6041V70.7514L173.87 72.6776C172.885 72.3922 171.843 72.393 170.859 72.68ZM74.1555 75.6362L76.5953 78.6004L76.6275 78.7502C76.2594 79.1911 76.0096 79.724 75.903 80.2957C75.7965 80.8675 75.8369 81.458 76.0202 82.0086C76.3368 82.5699 76.8606 82.437 77.3462 82.3138C77.8498 82.186 78.3123 82.0686 78.46 82.7469C78.7502 84.0791 75.8805 84.0791 75.8805 84.0791C72.151 83.9347 70.571 75.6362 70.571 75.6362H74.1555ZM68.7439 66.8991C69.8198 69.5723 70.345 72.4476 70.2862 75.342L72.3283 72.7109L71.0386 68.5255L75.198 69.6024L77.6378 67.382C74.6933 66.945 71.7165 66.7834 68.7439 66.8991ZM86.916 70.284C87.6269 71.4869 87.8967 72.9132 87.6764 74.304C87.0056 73.5192 86.1398 72.9389 85.1727 72.6258C84.2056 72.3127 83.174 72.2788 82.1896 72.5277L78.8899 70.6016L78.7825 67.4542C80.441 66.9759 82.2063 67.0794 83.8017 67.7484C85.1001 68.1815 86.2051 69.0812 86.916 70.284ZM95.1745 49.7601L95.1731 49.7802L95.1623 49.7636L95.1745 49.7601ZM97.5645 49.6526C96.77 49.504 95.9534 49.5407 95.1745 49.7601C95.239 48.8749 97.6323 19.0569 127.449 18.0015C156.079 19.0297 159.375 46.6998 159.716 49.5667L159.725 49.6415H159.763C159.409 49.6796 159.06 49.754 158.72 49.8635C158.121 50.0727 157.572 50.4114 157.109 50.857C156.646 51.3026 156.281 51.8449 156.037 52.4477C155.793 53.0506 155.676 53.7002 155.694 54.3534C155.712 55.0066 155.864 55.6483 156.141 56.2359C157.146 59.4943 163.315 59.9383 163.315 59.9383C162.198 61.327 160.738 62.3772 159.09 62.9773C157.442 63.5774 155.667 63.705 153.954 63.3466C153.255 63.0999 152.612 62.709 152.064 62.1977C151.516 61.6864 151.074 61.0654 150.765 60.3723C150.457 59.6793 150.288 58.9286 150.268 58.166C150.249 57.4034 150.381 56.6448 150.654 55.9361C152.098 56.4221 153.654 56.4221 155.098 55.9361C155.528 54.7483 156.533 48.8255 151.084 49.5637C145.635 50.302 145.774 57.4182 146.065 59.6386L146.089 59.8311C146.385 62.1544 147.035 67.2558 155.963 68.0815C158.664 68.1595 161.311 67.2954 163.477 65.6286C165.644 63.9618 167.204 61.5896 167.904 58.8948C171.489 52.0783 176.223 54.4541 176.223 54.4541C184.112 60.9708 175.939 63.7906 175.939 63.7906L174.649 62.0144C177.948 61.4204 177.664 59.794 176.943 57.718C176.223 55.642 173.069 56.2359 173.069 56.2359C172.465 56.3398 171.888 56.5716 171.375 56.9167C170.861 57.2618 170.423 57.7128 170.086 58.2413C169.75 58.7698 169.522 59.3645 169.419 59.988C169.315 60.6115 169.338 61.2503 169.484 61.8645C170.038 63.0085 170.82 64.0187 171.779 64.8286C170.056 64.9514 168.397 65.5532 166.978 66.5705C165.559 67.5877 164.432 68.9825 163.718 70.6071C163.521 71.6776 163.533 72.7778 163.751 73.8437C163.97 74.9096 164.392 75.92 164.992 76.8162C165.592 77.7123 166.358 78.4763 167.247 79.0637C168.135 79.6511 169.128 80.0502 170.167 80.2379C175.331 80.8318 174.042 74.4594 174.042 74.4594L177.626 74.7536L177.911 78.012C174.611 78.012 173.751 79.9381 173.751 79.9381C170.452 86.1606 178.341 88.381 178.341 88.381C185.515 90.1573 187.81 80.6764 187.81 80.6764C188.358 81.5517 189.132 82.2514 190.044 82.6966C190.957 83.1419 191.971 83.315 192.974 83.1965C198.568 80.8263 196.129 76.974 194.124 76.2301C192.12 75.4863 190.249 77.7122 190.249 77.7122C190.229 77.3938 190.125 77.0873 189.948 76.8259C189.771 76.5646 189.527 76.3585 189.245 76.2301C189.916 75.5887 190.726 75.1215 191.607 74.8668C192.488 74.6122 193.415 74.5775 194.311 74.7657C195.208 74.9538 196.048 75.3593 196.763 75.9489C197.478 76.5384 198.047 77.295 198.423 78.1563C198.423 83.7849 192.114 86.8989 192.114 86.8989C189.861 88.2656 188.167 90.4334 187.349 92.9967C186.531 95.56 186.645 98.3433 187.67 100.826C194.844 114.015 204.023 106.16 204.023 106.16C205.094 121.975 203.886 137.867 200.438 153.315C200.078 154.68 199.042 155.081 197.706 155.597C197.048 155.852 196.318 156.134 195.559 156.573C193.259 157.906 191.399 159.238 191.26 161.758C191.12 164.278 190.255 164.128 190.255 164.128C189.88 161.27 189.158 158.473 188.105 155.802C186.67 152.544 184.951 154.47 184.951 154.47C186.24 184.544 168.743 186.176 168.743 186.176C170.658 182.923 172.291 179.502 173.622 175.952C173.622 175.952 179.792 179.21 179.931 173.431C179.766 172.386 179.337 171.403 178.687 170.583C178.038 169.763 177.191 169.133 176.231 168.758C175.272 168.383 174.234 168.275 173.221 168.446C172.208 168.616 171.257 169.059 170.462 169.729C166.448 173.137 165.443 184.544 165.443 184.544C161.106 194.175 159.096 190.617 159.096 190.617C160.663 188.47 161.399 185.796 161.161 183.118C160.922 180.441 159.727 177.951 157.807 176.135C155.797 174.503 149.343 173.47 148.198 178.799C147.053 184.128 154.77 185.732 154.77 185.732C154.195 194.475 149.031 195.957 149.031 195.957C149.795 194.788 150.238 193.427 150.314 192.019C150.389 190.611 150.095 189.207 149.461 187.958C148.51 186.684 147.158 185.795 145.638 185.443C144.119 185.091 142.528 185.299 141.142 186.032C137.128 191.81 145.156 193.442 145.156 193.442C142.862 199.221 128.089 203.073 128.089 203.073C128.089 203.073 113.316 199.371 111.021 193.442C111.021 193.442 119.055 191.666 115.035 186.032C113.649 185.299 112.058 185.091 110.539 185.443C109.02 185.795 107.667 186.684 106.716 187.958C106.083 189.207 105.788 190.611 105.864 192.019C105.939 193.427 106.383 194.788 107.146 195.957C107.146 195.957 101.982 194.475 101.407 185.732C101.407 185.732 109.151 184.1 108.006 178.766C106.861 173.431 100.402 174.469 98.3975 176.101C96.4636 177.873 95.2324 180.321 94.9407 182.974C94.649 185.627 95.3175 188.298 96.8175 190.473C96.8175 190.473 94.8076 194.175 90.5085 184.4C90.5085 184.4 89.5035 172.993 85.4892 169.585C84.6985 168.902 83.7463 168.449 82.7302 168.272C81.7141 168.095 80.6706 168.2 79.7069 168.577C78.7432 168.954 77.8938 169.588 77.246 170.416C76.5981 171.244 76.1751 172.235 76.0202 173.287C76.0202 179.066 82.3293 175.807 82.3293 175.807C83.6611 179.357 85.294 182.779 87.2089 186.032C87.2089 186.032 69.7112 184.4 71.0009 154.325C71.0009 154.325 69.2813 152.399 67.8464 155.658C66.8435 158.326 66.1683 161.114 65.8366 163.956C65.8366 163.956 64.9767 163.956 64.8316 161.586C64.6865 159.216 62.8218 157.883 60.5324 156.401C59.6979 155.861 58.8904 155.552 58.1768 155.28C56.9328 154.804 55.9739 154.438 55.6529 153.143C52.2057 137.695 50.9977 121.803 52.0684 105.988C52.0684 105.988 61.1075 113.843 68.4214 100.654C69.4462 98.1712 69.5603 95.3879 68.7423 92.8246C67.9243 90.2613 66.2303 88.0935 63.9772 86.7268C63.9772 86.7268 57.6681 83.6128 57.6681 77.9842C58.0443 77.1229 58.6133 76.3663 59.3283 75.7768C60.0432 75.1873 60.8835 74.7817 61.78 74.5936C62.6765 74.4055 63.6034 74.4401 64.4844 74.6948C65.3654 74.9494 66.1751 75.4167 66.8469 76.0581C66.5641 76.1864 66.3208 76.3925 66.1436 76.6539C65.9664 76.9152 65.8621 77.2218 65.8419 77.5401C65.8419 77.5401 63.9772 75.3198 61.9673 76.0581C59.9574 76.7963 57.523 80.6486 63.1173 83.0244C64.12 83.1429 65.1347 82.9698 66.0472 82.5245C66.9597 82.0793 67.7336 81.3796 68.2817 80.5043C68.2817 80.5043 70.5764 89.9852 77.7507 88.2089C77.7507 88.2089 85.6397 85.9886 82.34 79.766C82.34 79.766 81.4802 77.69 78.1806 77.8399L78.4654 74.5815L82.0498 74.2873C82.0498 74.2873 80.7601 80.6597 85.9245 80.0658C86.9636 79.8782 87.9562 79.479 88.8447 78.8916C89.7331 78.3042 90.4996 77.5402 91.0997 76.6441C91.6997 75.748 92.1213 74.7376 92.34 73.6716C92.5586 72.6057 92.5699 71.5055 92.3732 70.435C91.7213 68.8412 90.6759 67.4518 89.3416 66.4057C88.0073 65.3596 86.4306 64.6933 84.7691 64.4734C85.7277 63.6634 86.5097 62.6533 87.0638 61.5092C87.2106 60.8951 87.2329 60.2562 87.1294 59.6327C87.0258 59.0092 86.7986 58.4145 86.4621 57.886C86.1255 57.3575 85.6868 56.9066 85.1735 56.5615C84.6602 56.2164 84.0834 55.9846 83.4793 55.8806C83.4793 55.8806 80.3248 55.2867 79.6047 57.3627C78.8846 59.4387 78.5997 61.0652 81.8994 61.6591L80.6096 63.4354C80.6096 63.4354 72.4358 60.6211 80.3248 54.0988C80.3248 54.0988 85.2044 51.7286 88.6437 58.5395C89.3223 61.2398 90.8709 63.6208 93.0345 65.2907C95.1981 66.9605 97.8477 67.8195 100.547 67.7262C109.483 66.8237 110.127 61.7808 110.422 59.4659L110.446 59.2833C110.511 58.4706 110.511 57.6537 110.446 56.8409C110.478 57.2354 110.602 57.616 110.806 57.9511C110.806 57.9511 117.98 72.5055 118.33 72.7664C118.679 73.0273 119.259 73.2105 119.082 72.7664C118.994 72.4019 118.994 72.0207 119.082 71.6562L133.436 47.0436L124.676 26.1502C124.676 26.1502 114.777 45.0231 111.945 50.6351C110.99 52.346 110.426 54.2598 110.295 56.2303C110.379 54.6481 109.911 53.0871 108.977 51.8305C108.042 50.5738 106.703 49.7047 105.201 49.3806C99.7517 48.6423 100.757 54.5651 101.187 55.753C102.631 56.2389 104.187 56.2389 105.631 55.753C105.904 56.4616 106.035 57.2202 106.016 57.9828C105.997 58.7454 105.828 59.4961 105.52 60.1891C105.211 60.8822 104.769 61.5032 104.221 62.0145C103.673 62.5258 103.03 62.9167 102.331 63.1634C100.616 63.5261 98.8371 63.3977 97.1872 62.7921C95.5373 62.1865 94.079 61.1268 92.9697 59.7274C92.9697 59.7274 99.1391 59.4332 100.144 56.025C101.149 52.6167 99.8592 50.3964 97.5645 49.6526Z" fill="#234A92"/>
</svg>
