<svg id="图层_2" data-name="图层 2" xmlns="http://www.w3.org/2000/svg" width="215.67" height="46.383" viewBox="0 0 215.67 46.383">
  <g id="图层_1" data-name="图层 1" transform="translate(0)">
    <path id="路径_2088" data-name="路径 2088" d="M31.663,45.889l3.5-3.6s.214.187.587-.053,4.618-2.723,6.273-2.723,2.215.4,1.495,1.174-2,1.121-1.868,1.628.667.347.934.427,1.842.454,1.682,1.281c0,0-.107.667-1.014.374a3.17,3.17,0,0,0-3.1.4c-1.441.854-3.924,2.456-6.726,1.708l-1.762-.614M23.7,6.432,24.91,9.468,22.241,14s-.113.1.113.38.167.3.334.347.3.147.581-.18,2.756-4.8,2.756-4.8L24.843,6.412l-.18-.48s-.267.634-.467.614A2.249,2.249,0,0,1,23.7,6.432Zm1.335,0a.874.874,0,0,0,.581.067A1.375,1.375,0,0,0,26,6.085l1.335,4L24.67,14.76s-.247.667-.928.22c0,0-.287-.234-.32-.414l2.669-4.818s.12.087-.047-.494Zm8.334,8.695.454-.534h.667s-.294,1.495-.988,1.521c0,0-.534,0-.48-.24s.327.073.454-.133A.6.6,0,0,0,33.365,15.127Zm1.174-.587a3.757,3.757,0,0,1,.3-1.548,9.2,9.2,0,0,0-1.655.087l.454.4.774-.194-.24.754Zm-3.223-.214a1.061,1.061,0,0,1,.714-1.154,1.448,1.448,0,0,1,.934-.053v.567l-.614.347A1.034,1.034,0,0,0,31.316,14.326ZM12.872,7.3A6.673,6.673,0,0,0,7.02,11.463a2.429,2.429,0,0,0-.08,1.2A4.544,4.544,0,0,1,6.166,13.9a5.26,5.26,0,0,1-.908,1.094s.561-3.663-.16-4.838c0,0-3.283,2.589-1.121,7.4,0,0-.454,2.135-.507,3.016,0,0-.08-.587-.214-1.335a11.691,11.691,0,0,0-1.335-2.723A12.118,12.118,0,0,1,1.2,14.806S-.08,18.33.881,19.9a3.6,3.6,0,0,0,2.456,1.762s-.133,4.057,0,4.591A8.088,8.088,0,0,0,2.322,23.8a12.085,12.085,0,0,1-1.335-2c-.24-.507-.427-.534-.427-.534s-1.094,2.963.667,5.158a12.265,12.265,0,0,0,2.3,1.521L3.95,30s0,.16-.534-.534a6.293,6.293,0,0,0-1.6-1.388A8.308,8.308,0,0,1,.4,26.744L0,26.611s.133,2.669,1.228,3.95c0,0,.32.881,3.23,1.655l1.255,2.349A5.852,5.852,0,0,0,2.8,33.15a4.771,4.771,0,0,1-1.281-.561A2.6,2.6,0,0,0,.4,32.216a4.155,4.155,0,0,0,3.336,3.63,8.314,8.314,0,0,0,3.07.294L9.7,39.016s.133.207-.667-.434-1.014-1.014-2-1.094-2.109.053-2.669,0a3.336,3.336,0,0,0-1.021.04A9.062,9.062,0,0,0,6.78,39.643a12.9,12.9,0,0,0,4.331.4l1.948,1.174.614-.32-.881-.881a7.627,7.627,0,0,0-.667-3.877c-.908-1.708-1.281-2.349-1.2-3.15,0,0-2.429,2.909.561,6.466,0,0-2.215-1.335-2.616-2.356,0,0,.8-.8.587-3.737a6.172,6.172,0,0,0-.614-2.135,2.3,2.3,0,0,1,.107-1.495S6.279,30.908,7.58,35.819A8.741,8.741,0,0,1,5.659,32.99s2-2.135,2.215-4.057.274-2.969.941-3.4c0,0-1.875-.614-3.8,4.544a1.535,1.535,0,0,0,.08,1.068,6.4,6.4,0,0,1-.667-2.322A7.827,7.827,0,0,0,6.806,25.49a9.191,9.191,0,0,1,1.662-3.737,7.035,7.035,0,0,0-4.3,4.971,7.3,7.3,0,0,1-.187-2.969s.534-.507,1.335-1.2a12.679,12.679,0,0,0,2.135-2.669c.541-.854,1.421-1.9,1.715-1.922a.494.494,0,0,0-.561-.24,6.166,6.166,0,0,0-4.571,3.71A14.794,14.794,0,0,1,4.4,18.763a5.852,5.852,0,0,0,2.989-2.109c1.154-1.628,2-2.989,2-2.989a1.335,1.335,0,0,0-.908,0,5.619,5.619,0,0,0-2.669,2.082l-.561.294a28.331,28.331,0,0,1,2.349-3.2,18.017,18.017,0,0,0,2.943-2.669C11.591,8.988,12.872,7.3,12.872,7.3Zm3.1,38.59-3.5-3.6s-.214.187-.587-.053S7.26,39.509,5.605,39.509s-2.215.4-1.495,1.174,2,1.121,1.868,1.628-.667.347-.934.427S3.2,43.193,3.336,44.02c0,0,.107.667,1.014.374a3.17,3.17,0,0,1,3.1.4c1.448.854,3.93,2.456,6.733,1.708Zm6.806-30.028H15.708v9.062s.247,4.8,3.29,6.233a5.679,5.679,0,0,0,3.51.607s.941.1,1.174.754a.285.285,0,0,0,0,.033h0a.1.1,0,0,0,.093.107c.093.007.16-.107.16-.107a.285.285,0,0,0,0-.033c.234-.667,1.174-.754,1.174-.754a5.645,5.645,0,0,0,3.5-.607c3.043-1.435,3.3-6.233,3.3-6.233V15.861Zm1.488,23.028a31.7,31.7,0,0,0-3.523.147c-5.2.667-8.221,2.262-8.181,2.669a1.12,1.12,0,0,0,.14.534l3.316,3.343s.107-.861.667-1.034a29.3,29.3,0,0,1,7.147-1.141,29.213,29.213,0,0,1,7.14,1.141c.574.173.667,1.034.667,1.034l3.3-3.3s.107-.107.14-.534-2.823-1.915-8.782-2.669a12.171,12.171,0,0,0-2-.167ZM14.253,15.1l-.454-.534h-.667s.294,1.495.988,1.521c0,0,.534,0,.48-.24s-.334.073-.454-.133a.6.6,0,0,1,.113-.587Zm-1.174-.587a3.757,3.757,0,0,0-.287-1.521,9.2,9.2,0,0,1,1.655.087l-.454.4-.774-.194.24.754Zm3.236-.187a1.061,1.061,0,0,0-.721-1.181,1.448,1.448,0,0,0-.934-.053l.02.567.614.347A1.034,1.034,0,0,1,16.315,14.326ZM34.759,7.3A6.673,6.673,0,0,1,40.6,11.463a2.429,2.429,0,0,1,.08,1.2,4.544,4.544,0,0,0,.774,1.234c.747,1.014.908,1.068.908,1.068s-.561-3.663.16-4.838c0,0,3.283,2.589,1.121,7.4,0,0,.454,2.135.507,3.016,0,0,.08-.587.214-1.335A11.691,11.691,0,0,1,45.7,16.488a12.117,12.117,0,0,0,.721-1.655s1.288,3.523.32,5.1a3.6,3.6,0,0,1-2.456,1.735s.133,4.057,0,4.591A8.088,8.088,0,0,1,45.3,23.8a12.085,12.085,0,0,0,1.335-2c.24-.507.434-.534.434-.534s1.094,2.963-.667,5.158a12.265,12.265,0,0,1-2.3,1.521L43.681,30s0,.16.534-.534a6.293,6.293,0,0,1,1.6-1.388,8.061,8.061,0,0,0,1.415-1.335l.407-.133S47.5,29.28,46.4,30.561c0,0-.32.881-3.23,1.655l-1.255,2.349a5.852,5.852,0,0,1,2.909-1.495,4.771,4.771,0,0,0,1.281-.561,2.6,2.6,0,0,1,1.121-.374s-.047,2.669-3.336,3.63a8.314,8.314,0,0,1-3.07.294l-2.889,2.956s-.133.207.667-.434,1.014-1.014,2-1.094,2.109.053,2.669,0a3.337,3.337,0,0,1,.988.053,9.062,9.062,0,0,1-3.443,2.115,12.852,12.852,0,0,1-4.324.4l-1.949,1.161-.614-.32.908-.881a7.627,7.627,0,0,1,.667-3.877c.908-1.708,1.281-2.349,1.2-3.15,0,0,2.429,2.909-.561,6.466,0,0,2.215-1.335,2.616-2.356,0,0-.8-.8-.587-3.737a6.173,6.173,0,0,1,.614-2.135,2.3,2.3,0,0,0-.087-1.495s2.669,1.174,1.335,6.086a8.741,8.741,0,0,0,1.922-2.829s-2-2.135-2.215-4.057-.267-2.969-.934-3.4c0,0,1.868-.614,3.79,4.544a1.535,1.535,0,0,1-.08,1.068,6.4,6.4,0,0,0,.667-2.322,7.827,7.827,0,0,1-2.376-3.336,9.3,9.3,0,0,0-1.655-3.737,7.034,7.034,0,0,1,4.3,4.971,7.3,7.3,0,0,0,.187-2.969s-.534-.507-1.335-1.2a12.679,12.679,0,0,1-2.135-2.669c-.534-.854-1.415-1.9-1.708-1.922a.487.487,0,0,1,.561-.24,6.146,6.146,0,0,1,4.564,3.71,14.8,14.8,0,0,0-.374-2.669,5.852,5.852,0,0,1-2.989-2.109c-1.148-1.628-2-2.989-2-2.989a1.335,1.335,0,0,1,.908,0A5.639,5.639,0,0,1,41.8,15.747l.561.294a28.331,28.331,0,0,0-2.349-3.2,18.07,18.07,0,0,1-2.936-2.669C36.034,8.988,34.759,7.3,34.759,7.3ZM17.71,9.908s.374-5.532,6.006-5.725c5.378.187,5.952,5.265,6.006,5.7h.007a1,1,0,0,0-.194.04.829.829,0,0,0-.48,1.148c.187.587,1.335.667,1.335.667a1.8,1.8,0,0,1-1.742.614,1.014,1.014,0,0,1-.614-1.335,1.335,1.335,0,0,0,.827,0c.08-.214.267-1.281-.747-1.148s-.988,1.415-.934,1.815.133,1.368,1.842,1.521a2.236,2.236,0,0,0,2.222-1.655c.667-1.228,1.548-.8,1.548-.8,1.468,1.174-.053,1.682-.053,1.682l-.24-.32c.614-.107.561-.4.427-.774s-.721-.267-.721-.267a.827.827,0,0,0-.667,1.014,1.635,1.635,0,0,0,.427.534,1.782,1.782,0,0,0-1.5,1.041,1.481,1.481,0,0,0,1.2,1.735c.961.107.721-1.041.721-1.041l.667.053.053.587c-.614,0-.774.347-.774.347-.614,1.121.854,1.521.854,1.521,1.335.32,1.762-1.388,1.762-1.388a1.008,1.008,0,0,0,.961.454c1.041-.427.587-1.121.214-1.255s-.721.267-.721.267a.314.314,0,0,0-.187-.267,1.074,1.074,0,0,1,1.708.347c0,1.014-1.174,1.575-1.174,1.575a2,2,0,0,0-.827,2.509c1.335,2.376,3.043.961,3.043.961a28.859,28.859,0,0,1-.667,8.495c-.1.367-.48.347-.908.587s-.774.48-.8.934-.187.427-.187.427a6.172,6.172,0,0,0-.4-1.5c-.267-.587-.587-.24-.587-.24.24,5.418-3.016,5.712-3.016,5.712a11.644,11.644,0,0,0,.908-1.842s1.148.587,1.174-.454a1.088,1.088,0,0,0-1.762-.667c-.747.614-.934,2.669-.934,2.669-.807,1.735-1.181,1.094-1.181,1.094a1.948,1.948,0,0,0-.24-2.609c-.374-.294-1.575-.48-1.788.48S28.8,34.4,28.8,34.4c-.107,1.575-1.068,1.842-1.068,1.842a1.408,1.408,0,0,0,.08-1.441,1.241,1.241,0,0,0-1.548-.347c-.747,1.041.747,1.335.747,1.335-.427,1.041-3.176,1.735-3.176,1.735v0s-2.749-.667-3.176-1.735c0,0,1.495-.32.747-1.335a1.241,1.241,0,0,0-1.548.347,1.408,1.408,0,0,0,.08,1.441s-.961-.267-1.068-1.842c0,0,1.441-.294,1.228-1.255s-1.415-.774-1.788-.48a1.949,1.949,0,0,0-.294,2.589s-.374.667-1.174-1.094c0,0-.187-2.055-.934-2.669a1.081,1.081,0,0,0-1.762.667c0,1.041,1.174.454,1.174.454a11.645,11.645,0,0,0,.908,1.842s-3.256-.294-3.016-5.712c0,0-.32-.347-.587.24a6.173,6.173,0,0,0-.374,1.495s-.16,0-.187-.427-.374-.667-.8-.934-.814-.22-.908-.587a28.859,28.859,0,0,1-.667-8.495s1.682,1.415,3.043-.961a2,2,0,0,0-.827-2.509s-1.174-.561-1.174-1.575a1.074,1.074,0,0,1,1.708-.347.314.314,0,0,0-.187.267s-.347-.4-.721-.267-.827.827.214,1.255a1.008,1.008,0,0,0,.961-.454s.427,1.708,1.762,1.388c0,0,1.468-.4.854-1.521,0,0-.16-.374-.774-.347l.053-.587.667-.053s-.24,1.148.721,1.041a1.481,1.481,0,0,0,1.2-1.735,1.782,1.782,0,0,0-1.415-1.074,1.635,1.635,0,0,0,.427-.534.827.827,0,0,0-.667-1.014s-.587-.107-.721.267-.187.667.427.774l-.24.32s-1.521-.507-.053-1.682c0,0,.908-.427,1.548.8a2.212,2.212,0,0,0,2.215,1.655c1.708-.167,1.788-1.121,1.842-1.521a2.669,2.669,0,0,0,0-.44.447.447,0,0,0,.067.2s1.335,2.622,1.4,2.669.173.08.14,0a.414.414,0,0,1,0-.2L24.83,9.415,23.2,5.651s-1.842,3.4-2.369,4.411a2.336,2.336,0,0,0-.307,1.008,1.194,1.194,0,0,0-.948-1.234c-1.014-.133-.827.934-.747,1.148a1.335,1.335,0,0,0,.827,0,1.014,1.014,0,0,1-.614,1.335A1.788,1.788,0,0,1,17.3,11.7s1.148-.053,1.335-.667-.053-1.014-.48-1.148a1.008,1.008,0,0,0-.447.02ZM24.149.94h-.908v.387l.04,2.709h-.387L22.781,2l-.761.173.307,2-.4.08-.9-2.8-.667.247.994,2.729-.374.14-.854-1.642-.667.374,1.081,1.535-.387.28L18.017,2.982l-.514.607,2.169,1.882-.354.327L17.723,4.677l-.387.667L18.9,6.2l-.274.44L15.615,5.558l-.26.667,3.05.827-.26.52-2.215-.267v.607l2,.22-.173.454H14.42v.734h3.236l-.14.567H17.7a.554.554,0,0,0-.514.514.52.52,0,0,0,.507.4c.4,0,.24.133.16.187a.561.561,0,0,1-.774,0c-.32-.347-.667-1.335-1.762-1.281a2.169,2.169,0,0,0-1.708,2.669s-1.842,0-1.788-1.041c0,0,.294-1.014,1.014-.747,0,0,.08,0-.214.24s-.667.614.133.908c0,0,.781.08.934-1.014.107-.774-.721-.988-.854-.988s-1.014,0-1.468,1.335c0,0-.427.08-.187-.347a2.489,2.489,0,0,1,.454-.614s-.374-.214-.961.374-1.088.874-1.088,1.174.187.32.4.16.427-.48.667-.4.214.187.214.187-1.528.721-1.041,1.868c0,0,.721,1.148,1.868-.194,0,0,.053-.667-.507-.721s-.614.3-.614.427-.347-.561.4-.747c0,0,.747-.347,1.2.827l.08.7s-2.562-.16-2.482,1.441.721,1.335.988,1.495c0,0,.561.667-.107,1.014A.554.554,0,0,0,10.283,17s-.961.133-.614,1.014a1.041,1.041,0,0,0,1.6,0,.908.908,0,0,0,.294-.667s1.628,1.174-.4,2.349a.567.567,0,0,1-.667-.053.667.667,0,0,0,.507-.8.948.948,0,0,0-1.548.24s-.08.934-.08,1.628c0,.567-.5,9.209,3.5,12.872a13.874,13.874,0,0,0,7.661,4.057,12.012,12.012,0,0,1,3.223,1.054v.04h0v-.04a12.011,12.011,0,0,1,3.223-1.054,13.877,13.877,0,0,0,7.667-4.057c4-3.663,3.5-12.3,3.5-12.872,0-.667-.08-1.628-.08-1.628a.948.948,0,0,0-1.548-.24.667.667,0,0,0,.507.8.567.567,0,0,1-.667.053c-2-1.174-.4-2.349-.4-2.349a.908.908,0,0,0,.294.667,1.041,1.041,0,0,0,1.6,0A.634.634,0,0,0,37.368,17a.554.554,0,0,0-.374.721c-.667-.374-.107-1.014-.107-1.014.267-.133.908.107.988-1.495s-2.509-1.441-2.509-1.441l.08-.7c.454-1.174,1.2-.827,1.2-.827.747.187.454.961.4.747s-.053-.507-.614-.427-.507.721-.507.721c1.148,1.335,1.868.194,1.868.194.48-1.154-1.068-1.875-1.068-1.875s-.053-.107.214-.187.48.24.667.4.4.133.4-.16S37.5,11.09,36.915,10.5s-.961-.374-.961-.374a2.489,2.489,0,0,1,.454.614c.24.427-.187.347-.187.347-.454-1.335-1.335-1.335-1.468-1.335s-.961.214-.854.988c.147,1.094.934,1.014.934,1.014.8-.294.427-.667.133-.908s-.214-.24-.214-.24c.721-.267,1.014.747,1.014.747.053,1.068-1.788,1.041-1.788,1.041A2.169,2.169,0,0,0,32.27,9.728c-1.094-.08-1.441.934-1.762,1.281a.567.567,0,0,1-.781,0c-.08-.053-.24-.214.16-.187a.52.52,0,0,0,.514-.4.561.561,0,0,0-.567-.52L29.7,9.341h3.236V8.607H29.6l-.167-.454,2-.22V7.326l-2.215.267-.267-.52,3.076-.827-.267-.667L28.774,6.652l-.28-.44,1.568-.861-.387-.667L28.093,5.791l-.36-.327L29.9,3.582l-.507-.6L27.252,5.117l-.387-.28L27.953,3.3l-.667-.374-.9,1.642-.36-.14,1-2.743-.667-.247-.894,2.8-.4-.08.307-2-.761-.153L24.5,4.043h-.387l.04-2.709Zm-.334,28.593.32.727.787.08-.587.527.16.807-.667-.394-.667.394.167-.774-.641-.561.787-.08Zm-3.5-2.289v.374h.374c.22,0,.334-.04.347-.167l.26-.754h-.541l-.147.46c0,.067-.04.093-.087.087Zm.247-.807a.28.28,0,0,0,.267.12h.46V26.17H21c-.06,0-.053-.067-.12-.087h-.567Zm.921-1.061v1.962c0,.18.08.254.274.254h1.862v-.42H22.107c-.093,0-.12,0-.12-.113V25.817h1.061v.394c0,.047,0,.073-.073.073h-.567V26.7h.861c.22,0,.307-.087.307-.294V25.376Zm-.173.46v-.394H21.1c-.073,0-.093-.053-.147-.067l-.113-.04h-.527l.28.347a.354.354,0,0,0,.307.153Zm-.974-1.268V25h.314l.113.22h.767L21.453,25h1.121l-.093.22h.667l.093-.22h.36v-.434h-.32v-.153h-.594l-.073.153H21.407l-.053-.167h-.667l-.127.167Zm7.273,1.054v.42h1.815l-.347.22v.227H27.546V26.9h1.528v.367c0,.06,0,.08-.087.08h-.394v.354h.767a.254.254,0,0,0,.26-.267V26.9h1.234v-.414H29.641v-.06l1.054-.487v-.32Zm-.087-.113h.6v-.167h2.042v.14h.667v-.52h-.274l.173-.574h-.7l-.133.487h-.4l-.133-.487h-.534l.113.5h-.38l-.227-.5h-.44l.16.5h-.534Zm-3.61-.667v.541H25.19L24.3,27a.24.24,0,0,1-.247.127h-.147v.414h.2a1.335,1.335,0,0,0,.427-.04.414.414,0,0,0,.187-.207l.841-1.515.874,1.528a.52.52,0,0,0,.527.254h.26v-.447h-.133a.2.2,0,0,1-.227-.127l-.8-1.428h-.307l.08-.234h1.388v-.541H25.891V24.4h-.627v.42Zm-7.16,2H17.2v-2.3h-.454Zm.6-2.349v2.669c0,.16.147.04-.047.04h-.354v.467h.614c.187,0,.267-.1.267-.334V24.455Zm1.408.434v.247h-.741v2.4h.467v-2h.274v2.069h.467V25.57H19.5v1.581a.039.039,0,0,1-.04.04h-.107v.36h.38c.187,0,.247-.073.247-.274V25.136h-.754v-.247h.727v-.42H18.017v.42Zm8.982-4.364v.287h-.914v-.287Zm-2.442,0H26.2v.287H25.3Zm0-1.061h2.442v.667h-.38l.187-.527h-.667l-.2.527h-.254l-.207-.547h-.667l.187.547h-.42ZM24.59,18.8h1.495V19H24.69v2.756H25.3v-.48H26.2v.48h.621v-.48h.914v.1c0,.073,0,.093-.12.093h-.314v.287h.534a.714.714,0,0,0,.407-.08.44.44,0,0,0,.1-.334V19H26.825v-.254h1.6V18.33h-1.6v-.153h-.741v.153H24.59Zm-3.236,2.829c.294,0,.42-.113.42-.38v-2.2H20.085v2.582Zm-2.242-.367c0,.073.033.093-.047.093h-.2v.414h.227c.247,0,.574-.08.594-.274l.093-.921h-.587Zm1.969-.214c0,.08-.033.12-.113.12h-.28V19.5h.387Zm-2.035-1c.06.214.16.294.34.294H19.9v-.374h-.06a.167.167,0,0,1-.167-.14l-.1-.354H18.9Zm.994-1.194h2v2.336c0,.1,0,.153-.14.153h-.08v.44h.367a.375.375,0,0,0,.427-.44V18.85h.147v-.52H20.019Zm-.974.194c.033.187.147.194.354.194h.48V18.83h-.06a.133.133,0,0,1-.153-.12l-.067-.38h-.667ZM29.741,42.285h.06a.107.107,0,0,1,.06,0q.32.2.08.667c-.167.287-.347.394-.547.307a.334.334,0,0,1-.153-.287.347.347,0,0,0-.133-.267.2.2,0,0,0-.28.073c-.06.18.053.354.347.534a.881.881,0,0,0,1.288-.294.594.594,0,0,0-.214-.854h0a.667.667,0,0,0,.621-.287.48.48,0,0,0-.254-.621.741.741,0,0,0-.867.14l.08.093a.42.42,0,0,1,.454-.067.267.267,0,0,1,.1.387c-.067.153-.28.267-.627.334Zm-4.951.254,1.415.04.087-.667h-.113a.234.234,0,0,1-.274.26h-.667c.12-.127.287-.28.494-.46.36-.287.534-.547.52-.794a.621.621,0,0,0-.614-.667.727.727,0,0,0-.741.667h.14a.447.447,0,0,1,.42-.4c.234,0,.354.174.354.474s-.22.621-.827,1.208l-.173.173Zm-3.6-1.928a.38.38,0,0,0-.08-.167.153.153,0,0,0-.147,0,.1.1,0,0,0-.1.073.46.46,0,0,0,0,.22l.18.754a.42.42,0,0,0,.073.194.113.113,0,0,0,.113,0,.16.16,0,0,0,.127-.093.334.334,0,0,0,0-.2Zm-.153,2.242v-.067a.667.667,0,0,0,.434-.38,1.154,1.154,0,0,0,0-.667v-.067a.46.46,0,0,1-.127.127.514.514,0,0,1-.167.067.54.54,0,0,1-.467-.1.761.761,0,0,1-.294-.46.787.787,0,0,1,.08-.581.721.721,0,0,1,.467-.34.747.747,0,0,1,.667.14,1.288,1.288,0,0,1,.4.7,1.335,1.335,0,0,1-.127,1,1.448,1.448,0,0,1-.854.627Zm-3.95-1.061c-.073-.14-.147-.087-.194-.113a.127.127,0,0,0-.147,0v-.04c.153-.113.38-.467.561-.627l.714,1.395a2.943,2.943,0,0,0,.327.534.234.234,0,0,0,.207.087h0l-.2.093-.194.107-.2.107-.207.12v-.04a.26.26,0,0,0,.053-.227,2.309,2.309,0,0,0-.227-.514l-.047-.093Zm6.733-7.914.507,1.048,1.154.167-.834.807.2,1.148L23.816,36.5l-1.028.547.2-1.148-.841-.807,1.154-.167Z" transform="translate(0 -0.313)" fill="red" fill-rule="evenodd"/>

  </g>
</svg>
